# xmcd CD database file
#
# Track frame offsets:
#	183
#	24150
#	45413
#	68418
#	87708
#	112753
#	151878
#	176235
#
# Disc length: 2554 seconds
#
# Revision: 0
# Processed by: cddbd v1.5.2PL0 Copyright (c) Steve Scherf et al.
# Submitted via: CDex 1.51
#
DISCID=5509f808
DTITLE=Buddy Guy - Hold that plane
DYEAR=1900
DGENRE=Blues
TTITLE0=Watermelon Man
TTITLE1=Hold That Plane
TTITLE2=I'm Ready
TTITLE3=My time after awhile
TTITLE4=You don't love me
TTITLE5=Come see about me
TTITLE6=Hello San Fransisco
TTITLE7=Poison Ivy
EXTD=
EXTT0=
EXTT1=
EXTT2=
EXTT3=
EXTT4=
EXTT5=
EXTT6=
EXTT7=
PLAYORDER=
